<?xml version="1.0" standalone="no"?>
<!DOCTYPE svg PUBLIC "-//W3C//DTD SVG 20010904//EN"
 "http://www.w3.org/TR/2001/REC-SVG-20010904/DTD/svg10.dtd">
<svg version="1.0" xmlns="http://www.w3.org/2000/svg"
 width="1000.000000pt" height="1000.000000pt" viewBox="0 0 1000.000000 1000.000000"
 preserveAspectRatio="xMidYMid meet">
<metadata>
Created by potrace 1.11, written by Peter Selinger 2001-2013
</metadata>
<g transform="translate(0.000000,1000.000000) scale(0.100000,-0.100000)"
fill="#000000" stroke="none">
<path d="M4758 9245 c-2 -2 -44 -6 -93 -9 -80 -6 -121 -10 -205 -21 -14 -2
-47 -7 -75 -10 -27 -3 -70 -10 -95 -15 -25 -5 -61 -12 -80 -14 -59 -9 -289
-64 -400 -96 -316 -93 -669 -243 -927 -396 -41 -24 -76 -44 -78 -44 -17 0
-333 -221 -451 -316 -701 -562 -1200 -1310 -1442 -2164 -47 -166 -101 -418
-117 -550 -3 -19 -7 -48 -10 -65 -5 -35 -12 -97 -21 -210 -15 -170 -8 -696 11
-795 1 -8 6 -40 9 -70 10 -82 14 -111 21 -150 4 -19 8 -46 10 -60 2 -14 8 -47
14 -75 6 -27 13 -61 15 -75 49 -240 163 -597 255 -795 17 -36 31 -69 31 -72 0
-3 29 -63 64 -133 257 -513 579 -927 1029 -1327 157 -140 438 -339 656 -465
149 -87 525 -268 555 -268 3 0 25 -9 49 -19 142 -64 608 -193 772 -215 22 -2
47 -7 55 -10 8 -2 40 -7 70 -11 30 -3 68 -7 85 -10 181 -24 244 -28 530 -29
229 0 338 4 465 19 187 22 391 56 455 75 17 5 45 12 64 15 130 22 474 134 681
222 112 48 352 166 410 201 19 12 42 25 50 29 63 29 330 206 327 216 -1 4
-225 230 -496 502 l-494 493 -36 -22 c-57 -36 -277 -140 -376 -179 -96 -37
-304 -104 -345 -111 -14 -2 -43 -9 -65 -14 -22 -6 -51 -13 -65 -16 -241 -43
-323 -50 -570 -51 -236 0 -308 6 -515 42 -267 46 -585 156 -825 285 -52 28
-105 56 -117 62 -13 6 -23 14 -23 19 0 4 -5 7 -10 7 -12 0 -215 137 -280 189
-389 311 -682 694 -873 1141 -58 137 -128 350 -152 465 -3 11 -8 34 -12 50 -3
17 -7 37 -8 45 -1 8 -7 42 -13 75 -28 151 -37 261 -37 475 0 206 10 356 30
460 3 14 7 43 10 65 4 22 10 54 15 70 4 17 12 48 16 70 4 22 8 45 10 50 67
246 142 439 251 645 401 756 1138 1301 1980 1466 125 24 150 28 283 41 97 10
440 10 550 0 76 -7 111 -12 225 -31 288 -49 636 -173 892 -319 l61 -35 494
493 c271 272 494 497 495 502 1 4 -36 33 -83 63 -46 30 -91 61 -99 68 -7 6
-16 12 -20 12 -4 0 -25 13 -48 28 -23 15 -53 33 -67 40 -14 7 -41 22 -60 33
-40 25 -264 138 -330 167 -353 157 -740 270 -1120 327 -47 7 -119 15 -260 31
-52 6 -597 14 -602 9z"/>
<path d="M7933 7006 l-492 -493 46 -79 c137 -237 242 -507 310 -789 12 -50 31
-154 37 -199 4 -27 9 -52 10 -55 10 -17 20 -221 20 -396 0 -174 -5 -278 -19
-375 -7 -52 -18 -116 -22 -135 -2 -11 -8 -40 -13 -65 -4 -25 -10 -54 -13 -65
-74 -300 -168 -540 -308 -782 l-49 -85 493 -494 c272 -272 497 -494 500 -494
6 0 34 40 118 165 131 197 275 469 369 695 28 69 55 134 60 145 23 49 123 372
135 435 2 8 4 15 5 15 1 0 3 8 5 17 2 9 12 58 23 110 12 51 23 107 27 123 3
17 8 41 10 55 3 14 8 45 11 70 3 25 7 52 9 60 2 8 7 42 11 75 3 33 8 69 10 80
26 137 25 714 -1 920 -21 162 -29 214 -45 300 -5 28 -11 61 -14 75 -8 48 -38
176 -63 265 -13 50 -26 97 -28 106 -6 28 -63 194 -101 296 -103 275 -259 581
-423 826 -25 38 -50 76 -56 85 -5 9 -16 22 -23 30 -6 7 -17 22 -22 33 -6 10
-14 19 -18 19 -4 -1 -228 -223 -499 -494z"/>
</g>
</svg>
